<svg width="39.36" height="24.672" viewBox="0 0 39.36 24.672" xmlns="http://www.w3.org/2000/svg"><g id="svgGroup" stroke-linecap="round" fill-rule="evenodd" font-size="9pt" stroke="#000" stroke-width="0.25mm" fill="black" style="stroke:#000;stroke-width:0.25mm;fill:black"><path d="M 0 24.256 L 0 2.432 L 13.376 2.432 L 13.376 4.896 L 2.688 4.896 L 2.688 11.872 L 12.608 11.872 L 12.608 14.272 L 2.688 14.272 L 2.688 21.792 L 13.696 21.792 L 13.696 24.256 L 0 24.256 Z M 17.536 24.256 L 17.536 0.288 L 20.096 0 L 20.096 24.256 L 17.536 24.256 Z M 23.808 16.256 Q 23.808 13.824 24.576 12.208 Q 25.344 10.592 26.528 9.616 A 7.413 7.413 0 0 1 28.3 8.519 A 6.705 6.705 0 0 1 29.072 8.24 A 10.155 10.155 0 0 1 30.536 7.919 A 8.063 8.063 0 0 1 31.648 7.84 A 8.389 8.389 0 0 1 32.931 7.944 A 11.383 11.383 0 0 1 34.16 8.208 Q 35.52 8.576 36.672 9.52 Q 37.824 10.464 38.592 12.048 A 7.001 7.001 0 0 1 39.117 13.596 Q 39.36 14.696 39.36 16.064 Q 39.36 18.592 38.576 20.256 A 8.761 8.761 0 0 1 37.753 21.665 A 6.602 6.602 0 0 1 36.608 22.896 A 7.304 7.304 0 0 1 34.682 24.053 A 6.759 6.759 0 0 1 34.048 24.272 Q 32.672 24.672 31.488 24.672 Q 30.272 24.672 28.928 24.288 A 6.736 6.736 0 0 1 26.519 23.018 A 7.693 7.693 0 0 1 26.448 22.96 A 6.353 6.353 0 0 1 25.263 21.639 A 8.664 8.664 0 0 1 24.56 20.384 Q 23.944 19.047 23.832 17.129 A 15.082 15.082 0 0 1 23.808 16.256 Z M 26.528 16.288 A 11.015 11.015 0 0 0 26.651 17.991 Q 26.789 18.874 27.084 19.579 A 4.556 4.556 0 0 0 27.92 20.912 A 4.599 4.599 0 0 0 30.758 22.369 A 6.541 6.541 0 0 0 31.68 22.432 Q 34.016 22.432 35.328 20.928 A 4.731 4.731 0 0 0 36.223 19.328 Q 36.464 18.625 36.566 17.761 A 11.529 11.529 0 0 0 36.64 16.416 A 11.702 11.702 0 0 0 36.517 14.66 Q 36.227 12.75 35.248 11.648 Q 33.856 10.08 31.456 10.08 A 5.913 5.913 0 0 0 29.956 10.259 A 4.03 4.03 0 0 0 27.792 11.632 Q 26.868 12.766 26.619 14.73 A 12.433 12.433 0 0 0 26.528 16.288 Z" vector-effect="non-scaling-stroke"/></g></svg>